<?xml version="1.0" encoding="UTF-8" standalone="no"?>
<!-- Created with Inkscape (http://www.inkscape.org/) -->

<svg
   width="63.041851mm"
   height="42.117107mm"
   viewBox="0 0 63.041851 42.117107"
   version="1.1"
   id="svg1"
   xmlns="http://www.w3.org/2000/svg"
   xmlns:svg="http://www.w3.org/2000/svg">
  <defs
     id="defs1" />
  <g
     id="layer1"
     transform="translate(-28.045572,-111.74921)">
    <g
       id="g50"
       style="display:inline"
       transform="translate(2.1710371,-0.54275888)">
      <path
         id="path36"
         style="fill:#916920;fill-opacity:1;stroke:none;stroke-width:0.5;stroke-linejoin:round;stroke-miterlimit:5;stroke-dasharray:none;stroke-opacity:1"
         d="m 31.431271,115.06462 -3.792762,11.9934 a 1.93827,1.93827 53.774445 0 0 1.848063,2.5227 h 55.817782 a 1.9383261,1.9383261 126.22634 0 0 1.848132,-2.52272 l -3.792383,-11.99336 a 3.6115872,3.6115872 36.226345 0 0 -3.443534,-2.52272 l -45.041695,0 a 3.6116917,3.6116917 143.77445 0 0 -3.443603,2.5227 z"
         transform="matrix(0.87839989,0,0,0.8068056,6.9792979,25.034269)" />
      <path
         id="path45"
         style="fill:#71521a;fill-opacity:1;stroke:none;stroke-width:0.499999;stroke-linejoin:round;stroke-miterlimit:5;stroke-dasharray:none;stroke-opacity:1"
         d="m 80.75166,117.21817 -6.744291,0.77618 7.102409,-0.11937 z m -22.977925,0.29869 -7.759217,0.65629 7.699272,0.17932 8.23619,-0.17932 z m -23.933423,1.25315 -0.954981,0.95498 22.918498,-0.35812 z m 48.403247,2.805 c -0.238734,0 -14.383618,0.95498 -14.383618,0.95498 l 15.457971,0.29869 z m -50.432064,1.37304 -0.716235,1.67122 15.517399,-1.43247 z" />
      <path
         id="rect4"
         style="fill:#a6a295;fill-opacity:1;stroke:none;stroke-width:0.5;stroke-linejoin:round;stroke-miterlimit:5;stroke-dasharray:none;stroke-opacity:1"
         d="m 34.874874,112.54197 a 3.6116917,3.6116917 0 0 0 -3.443718,2.52284 l -3.792533,11.99307 a 1.93827,1.93827 0 0 0 1.847949,2.52284 h 3.393592 a 1.7025762,1.5638071 0 0 1 -1.623157,-2.03553 l 3.331579,-9.6759 a 3.1725096,2.9139331 0 0 1 3.024622,-2.03553 h 39.565027 a 3.1724178,2.9138488 0 0 1 3.024621,2.03553 l 3.331063,9.6759 a 1.7026254,1.5638524 0 0 1 -1.623156,2.03553 h 3.393591 a 1.9383261,1.9383261 0 0 0 1.847949,-2.52284 l -3.792017,-11.99307 a 3.6115872,3.6115872 0 0 0 -3.443717,-2.52284 z" />
      <path
         id="path49"
         style="fill:#cccccc;fill-opacity:0.69223;stroke:none;stroke-width:0.527378;stroke-linejoin:round;stroke-miterlimit:5;stroke-dasharray:none;stroke-opacity:1"
         d="m 34.874874,112.54197 a 3.6116917,3.6116917 0 0 0 -3.443718,2.52284 l -2.510957,7.93957 h 0.19792 l 2.904216,-7.58197 a 3.5294547,2.9139331 0 0 1 3.365169,-2.03553 h 44.016435 a 3.5293525,2.9138488 0 0 1 3.365169,2.03553 l 2.903699,7.58197 h 0.197921 l -2.510442,-7.93957 a 3.6115872,3.6115872 0 0 0 -3.443717,-2.52284 z" />
      <path
         id="path22"
         style="fill:#76561a;fill-opacity:1;stroke:none;stroke-width:0.5;stroke-linejoin:round;stroke-miterlimit:5;stroke-dasharray:none;stroke-opacity:1"
         d="m 27.582548,132.12044 5.695272,19.49878 a 3.5291893,3.5291893 36.858896 0 0 3.387642,2.53972 l 41.460002,0 a 3.5291893,3.5291893 143.1411 0 0 3.387642,-2.53972 l 5.695272,-19.49878 a 1.9835813,1.9835813 53.141104 0 0 -1.904024,-2.53972 l -55.817782,0 a 1.9835813,1.9835813 126.8589 0 0 -1.904024,2.53972 z"
         transform="matrix(0.89817315,0,0,0.86703158,5.844399,17.230144)" />
      <path
         id="path23"
         style="fill:#5b4214;fill-opacity:1;stroke:none;stroke-width:0.499999;stroke-linejoin:round;stroke-miterlimit:5;stroke-dasharray:none;stroke-opacity:1"
         d="m 83.223344,138.12904 -18.991089,0.5488 18.864482,0.29507 z m -51.613387,0.1266 0.206706,1.97714 20.092313,-1.04851 z m 50.896118,2.74299 -13.271025,0.40876 13.05295,1.11466 z m -13.462744,0.0424 -10.930599,0.0842 -6.541203,0.37982 6.499345,0.50643 z m -35.931657,1.41335 -0.02481,2.00505 25.574667,-1.13947 z m 36.564693,0.99219 -7.63881,0.37982 7.63881,0.0842 c 0,0 4.531891,-0.24159 5.799129,-0.29043 -1.268192,-0.0119 -5.799129,-0.17363 -5.799129,-0.17363 z m 11.661304,1.27176 -15.163932,1.55598 14.380517,0.58859 z m -47.027104,1.59783 0.221175,1.78387 10.709424,-0.98185 z m 19.708875,1.89911 -9.960116,0.75965 9.917741,0.21135 c 0,0 9.157754,-0.5488 9.326563,-0.5488 0.168812,0 -9.284188,-0.4222 -9.284188,-0.4222 z m 25.658899,0.88625 c -0.295418,0.0422 -7.764901,0.37983 -7.764901,0.37983 l 7.638293,0.33796 z" />
      <path
         style="fill:#473310;fill-opacity:0.659044;stroke:none;stroke-width:0.432279;stroke-linejoin:round;stroke-miterlimit:5;stroke-dasharray:none;stroke-opacity:1"
         id="rect36"
         width="50.8503"
         height="0.31227776"
         x="31.99033"
         y="139.06244"
         d="m 31.99033,139.06244 h 50.8503 v 0.31228 h -50.8503 z m 1.017006,2.43519 h 48.816288 v 0.29979 H 33.007336 Z m 1.017006,2.43519 h 46.782276 v 0.28729 H 34.024342 Z"
         transform="matrix(0.99834012,0,0,1.9319064,-0.15791291,-130.35282)" />
      <path
         id="rect3"
         style="fill:#777063;fill-opacity:1;stroke:#000000;stroke-width:0.5;stroke-linejoin:round;stroke-miterlimit:5;stroke-dasharray:none;stroke-opacity:1"
         d="m 29.486572,129.58072 a 1.9835813,1.9835813 0 0 0 -1.904276,2.5399 l 5.695776,19.49855 a 3.5291893,3.5291893 0 0 0 3.38739,2.5399 h 41.460002 a 3.5291893,3.5291893 0 0 0 3.38739,-2.5399 l 5.695776,-19.49855 a 1.9835813,1.9835813 0 0 0 -1.904276,-2.5399 h -2.841687 a 1.7815995,1.7198276 0 0 1 1.709973,2.20193 l -5.11545,16.90595 a 3.169823,3.0599185 0 0 1 -3.042708,2.20245 H 38.776444 a 3.169823,3.0599185 0 0 1 -3.042708,-2.20245 l -5.11545,-16.90595 a 1.7815995,1.7198276 0 0 1 1.709973,-2.20193 z" />
      <path
         id="rect14"
         style="fill:#000000;fill-opacity:0.522884;stroke:none;stroke-width:0.5;stroke-linejoin:round;stroke-miterlimit:5;stroke-dasharray:none;stroke-opacity:1"
         d="m 27.802954,130.51555 a 1.9835813,1.9835813 0 0 0 -0.220658,1.60507 l 1.22008,4.17649 H 85.98855 l 1.22008,-4.17649 a 1.9835813,1.9835813 0 0 0 -0.220658,-1.60507 z" />
      <rect
         style="fill:#938c7f;fill-opacity:1;stroke:none;stroke-width:0.5;stroke-linejoin:round;stroke-miterlimit:5;stroke-dasharray:none;stroke-opacity:1"
         id="rect6"
         width="62.541851"
         height="5.7813497"
         x="26.124537"
         y="129.58072"
         ry="0.71620142" />
      <path
         id="path50"
         style="fill:none;fill-opacity:1;stroke:#000000;stroke-width:0.5;stroke-linejoin:round;stroke-miterlimit:5;stroke-dasharray:none;stroke-opacity:1"
         d="m 34.874874,112.54197 a 3.6116917,3.6116917 0 0 0 -3.443718,2.52284 l -3.792533,11.99307 a 1.93827,1.93827 0 0 0 1.847949,2.52284 h 3.393592 a 1.7025762,1.5638071 0 0 1 -1.623157,-2.03553 l 3.331579,-9.6759 a 3.1725096,2.9139331 0 0 1 3.024622,-2.03553 h 39.565027 a 3.1724178,2.9138488 0 0 1 3.024621,2.03553 l 3.331063,9.6759 a 1.7026254,1.5638524 0 0 1 -1.623156,2.03553 h 3.393591 a 1.9383261,1.9383261 0 0 0 1.847949,-2.52284 l -3.792017,-11.99307 a 3.6115872,3.6115872 0 0 0 -3.443717,-2.52284 z" />
      <rect
         style="fill:#938c7f;fill-opacity:1;stroke:none;stroke-width:0.5;stroke-linejoin:round;stroke-miterlimit:5;stroke-dasharray:none;stroke-opacity:1"
         id="rect7"
         width="62.541851"
         height="5.7813497"
         x="26.124537"
         y="123.79936"
         ry="0.71620142" />
      <path
         id="path11"
         style="fill:#ada79e;fill-opacity:1;stroke:none;stroke-width:0.415032;stroke-linejoin:round;stroke-miterlimit:5;stroke-dasharray:none;stroke-opacity:1"
         d="m 26.840739,129.58072 c -0.396776,0 -0.716235,0.22011 -0.716235,0.49349 v 0.4415 h 62.541919 v -0.4415 c 0,-0.27338 -0.31946,-0.49349 -0.716236,-0.49349 z" />
      <path
         id="path57"
         style="fill:#39362f;fill-opacity:1;stroke:none;stroke-width:0.415034;stroke-linejoin:round;stroke-miterlimit:5;stroke-dasharray:none;stroke-opacity:1"
         d="m 26.840739,135.34362 c -0.396776,0 -0.716235,-0.22011 -0.716235,-0.4935 v -0.4415 h 62.541919 v 0.4415 c 0,0.27339 -0.31946,0.4935 -0.716236,0.4935 z" />
      <rect
         style="fill:none;fill-opacity:1;stroke:#000000;stroke-width:0.5;stroke-linejoin:round;stroke-miterlimit:5;stroke-dasharray:none;stroke-opacity:1"
         id="rect8"
         width="62.541851"
         height="5.7813497"
         x="26.124537"
         y="129.58072"
         ry="0.71620142" />
      <path
         id="rect10"
         style="fill:#ada79e;fill-opacity:1;stroke:none;stroke-width:0.415032;stroke-linejoin:round;stroke-miterlimit:5;stroke-dasharray:none;stroke-opacity:1"
         d="m 26.840739,123.79916 c -0.396776,0 -0.716235,0.22011 -0.716235,0.49349 v 0.4415 h 62.541919 v -0.4415 c 0,-0.27338 -0.31946,-0.49349 -0.716236,-0.49349 z" />
      <rect
         style="fill:#000000;fill-opacity:0.471544;stroke:none;stroke-width:0.423954;stroke-linejoin:round;stroke-miterlimit:5;stroke-dasharray:none;stroke-opacity:1"
         id="rect13"
         width="11.298077"
         height="2.9006667"
         x="51.746426"
         y="121.83349"
         ry="0.54695499" />
      <path
         id="path58"
         style="fill:#39362f;fill-opacity:1;stroke:none;stroke-width:0.415034;stroke-linejoin:round;stroke-miterlimit:5;stroke-dasharray:none;stroke-opacity:1"
         d="m 26.840742,129.58072 c -0.396776,0 -0.716235,-0.22011 -0.716235,-0.4935 v -0.4415 h 62.541919 v 0.4415 c 0,0.27339 -0.31946,0.4935 -0.716236,0.4935 z" />
      <rect
         style="fill:none;fill-opacity:1;stroke:#000000;stroke-width:0.5;stroke-linejoin:round;stroke-miterlimit:5;stroke-dasharray:none;stroke-opacity:1"
         id="rect9"
         width="62.541851"
         height="5.7813497"
         x="26.124537"
         y="123.79936"
         ry="0.71620142" />
      <rect
         style="fill:#938c7f;fill-opacity:1;stroke:none;stroke-width:0.414466;stroke-linejoin:round;stroke-miterlimit:5;stroke-dasharray:none;stroke-opacity:1"
         id="rect11"
         width="10.798023"
         height="2.9006667"
         x="51.996479"
         y="120.83539"
         ry="0.54695499" />
      <path
         id="path12"
         style="fill:#ada79e;fill-opacity:1;stroke:none;stroke-width:0.153257;stroke-linejoin:round;stroke-miterlimit:5;stroke-dasharray:none;stroke-opacity:1"
         d="m 52.167243,120.8541 c -0.06789,0 -0.122561,0.1754 -0.122561,0.39326 v 0.35182 h 10.701602 v -0.35182 c 0,-0.21786 -0.05467,-0.39326 -0.12256,-0.39326 z" />
      <rect
         style="fill:none;fill-opacity:1;stroke:#000000;stroke-width:0.5;stroke-linejoin:round;stroke-miterlimit:5;stroke-dasharray:none;stroke-opacity:1"
         id="rect12"
         width="10.798023"
         height="2.9006667"
         x="51.996479"
         y="120.83539"
         ry="0.54695499" />
    </g>
    <rect
       style="fill:#ada79e;fill-opacity:1;stroke:none;stroke-width:0.594375;stroke-linejoin:round;stroke-miterlimit:5;stroke-dasharray:none;stroke-opacity:1"
       id="rect54"
       width="4.6827941"
       height="4.1988392"
       x="57.225098"
       y="122.16446" />
    <path
       id="rect56"
       style="fill:#ccc9c4;fill-opacity:1;stroke:none;stroke-width:0.707113;stroke-linejoin:round;stroke-miterlimit:5;stroke-dasharray:none;stroke-opacity:1"
       d="m 57.225146,122.16464 v 0.8155 h 4.682401 v -0.8155 z" />
    <rect
       style="fill:none;fill-opacity:1;stroke:#000000;stroke-width:0.5;stroke-linejoin:round;stroke-miterlimit:5;stroke-dasharray:none;stroke-opacity:1"
       id="rect55"
       width="4.6827941"
       height="4.1988392"
       x="57.225098"
       y="122.16446" />
    <circle
       style="fill:#ada79e;fill-opacity:1;stroke:none;stroke-width:0.499999;stroke-linejoin:round;stroke-miterlimit:5;stroke-dasharray:none;stroke-opacity:1"
       id="circle52"
       cx="59.566502"
       cy="129.03796"
       r="4.5778975" />
    <path
       id="path51"
       style="fill:#ccc9c4;fill-opacity:1;stroke:none;stroke-width:0.499999;stroke-linejoin:round;stroke-miterlimit:5;stroke-dasharray:none;stroke-opacity:1"
       d="m 59.56639,124.4601 a 4.5778975,4.5778975 0 0 0 -4.578015,4.57802 4.5778975,4.5778975 0 0 0 0.03049,0.46715 4.5778975,4.5778975 0 0 1 4.547526,-4.11034 4.5778975,4.5778975 0 0 1 4.547526,4.11034 4.5778975,4.5778975 0 0 0 0.03049,-0.46715 4.5778975,4.5778975 0 0 0 -4.578015,-4.57802 z" />
    <path
       id="circle58"
       style="fill:#39362f;fill-opacity:1;stroke:none;stroke-width:0.50581;stroke-linejoin:round;stroke-miterlimit:5;stroke-dasharray:none;stroke-opacity:1"
       d="m 64.13562,128.90479 a 4.5778975,4.5778975 0 0 1 0.0088,0.13333 4.5778975,4.5778975 0 0 1 -4.578015,4.5775 4.5778975,4.5778975 0 0 1 -4.578015,-4.5775 4.5778975,4.5778975 0 0 1 0.0088,-0.13229 4.6849356,4.5778975 0 0 0 -0.115755,0.96841 4.6849356,4.5778975 0 0 0 4.684985,4.57802 4.6849356,4.5778975 0 0 0 4.684985,-4.57802 4.6849356,4.5778975 0 0 0 -0.115755,-0.96945 z" />
    <circle
       style="fill:none;fill-opacity:1;stroke:#000000;stroke-width:0.499999;stroke-linejoin:round;stroke-miterlimit:5;stroke-dasharray:none;stroke-opacity:1"
       id="circle51"
       cx="59.566502"
       cy="129.03796"
       r="4.5778975" />
    <path
       id="path52"
       style="fill:#f0da15;fill-opacity:1;stroke:#000000;stroke-width:0.5;stroke-linejoin:round;stroke-miterlimit:5;stroke-dasharray:none;stroke-opacity:1"
       d="m 59.566244,126.6133 a 1.4065028,1.4065028 0 0 0 -1.406633,1.40663 1.4065028,1.4065028 0 0 0 0.874366,1.30225 l -0.874366,2.14044 1.406633,-0.0243 1.407149,0.0243 -0.874882,-2.14044 a 1.4065028,1.4065028 0 0 0 0.874365,-1.30225 1.4065028,1.4065028 0 0 0 -1.406632,-1.40663 z" />
  </g>
</svg>
