<?xml version="1.0" encoding="UTF-8" standalone="no"?>
<!-- Created with Inkscape (http://www.inkscape.org/) -->

<svg
   width="63.041851mm"
   height="46.951702mm"
   viewBox="0 0 63.041851 46.951702"
   version="1.1"
   id="svg1"
   xmlns="http://www.w3.org/2000/svg"
   xmlns:svg="http://www.w3.org/2000/svg">
  <defs
     id="defs1" />
  <g
     id="layer1"
     transform="translate(-18.818665,-128.73125)">
    <g
       id="g101"
       style="display:inline"
       transform="translate(-7.0558706,21.273885)">
      <path
         id="rect127"
         style="fill:#5b4214;fill-opacity:1;stroke:none;stroke-width:0.394439;stroke-linecap:round;stroke-linejoin:round;stroke-miterlimit:5;stroke-dasharray:none;stroke-opacity:1"
         d="m 32.705468,119.09894 v 0.86765 h -3.254065 l 3.254065,4.7904 h 49.722029 l 3.254065,-4.7904 h -3.254065 v -0.86765 z" />
      <path
         id="rect135"
         style="fill:#33250b;fill-opacity:1;stroke:none;stroke-width:0.4;stroke-linecap:round;stroke-linejoin:round;stroke-miterlimit:5;stroke-dasharray:none;stroke-opacity:1"
         d="m 32.705468,119.09894 v 0.86765 h -3.254065 l 1.468644,2.16214 h 53.292871 l 1.468644,-2.16214 h -3.254065 v -0.86765 z" />
      <path
         style="fill:#433e36;fill-opacity:1;stroke:#000000;stroke-width:0.499999;stroke-linecap:round;stroke-linejoin:round;stroke-miterlimit:5;stroke-dasharray:none;stroke-opacity:1"
         d="M 85.681519,119.96658 82.42754,124.757 h -2.223062 l 3.149216,-4.94275 z"
         id="path134" />
      <path
         style="fill:#433e36;fill-opacity:1;stroke:#000000;stroke-width:0.499999;stroke-linecap:round;stroke-linejoin:round;stroke-miterlimit:5;stroke-dasharray:none;stroke-opacity:1"
         d="m 29.451493,119.96657 3.253975,4.79042 h 2.22306 l -3.149212,-4.94275 z"
         id="path133" />
      <rect
         style="fill:#39362f;fill-opacity:1;stroke:none;stroke-width:0.372034;stroke-linecap:round;stroke-linejoin:round;stroke-miterlimit:5;stroke-dasharray:none;stroke-opacity:1"
         id="rect126"
         width="51.574181"
         height="4.8527131"
         x="31.779316"
         y="125.90804" />
      <path
         id="path86"
         style="fill:#916920;fill-opacity:1;stroke:none;stroke-width:0.5;stroke-linejoin:round;stroke-miterlimit:5;stroke-dasharray:none;stroke-opacity:1"
         d="m 31.431271,115.06462 -3.792762,11.9934 a 1.93827,1.93827 53.774445 0 0 1.848063,2.5227 h 55.817782 a 1.9383261,1.9383261 126.22634 0 0 1.848132,-2.52272 l -3.792383,-11.99336 a 3.6115872,3.6115872 36.226345 0 0 -3.443534,-2.52272 l -45.041695,0 a 3.6116917,3.6116917 143.77445 0 0 -3.443603,2.5227 z"
         transform="matrix(0.87950397,0,0,0.58226293,6.9159289,44.516522)" />
      <path
         id="path87"
         style="fill:#71521a;fill-opacity:1;stroke:none;stroke-width:0.425027;stroke-linejoin:round;stroke-miterlimit:5;stroke-dasharray:none;stroke-opacity:1"
         d="m 80.781017,111.04465 -6.752768,0.56016 7.111336,-0.0862 z m -23.006807,0.21556 -7.768969,0.47364 7.708949,0.12941 8.246542,-0.12941 z m -23.963505,0.90439 -0.956181,0.6892 22.947304,-0.25846 z m 48.464086,2.02434 c -0.239034,0 -14.401697,0.68919 -14.401697,0.68919 l 15.4774,0.21557 z m -50.495453,0.9909 -0.717135,1.20611 15.536903,-1.0338 z" />
      <path
         id="path88"
         style="fill:#a6a295;fill-opacity:1;stroke:none;stroke-width:0.425028;stroke-linejoin:round;stroke-miterlimit:5;stroke-dasharray:none;stroke-opacity:1"
         d="m 34.846567,107.66989 a 3.6162313,2.6065191 0 0 0 -3.448046,1.8207 l -3.7973,8.65527 a 1.9407062,1.3988286 0 0 0 1.850272,1.82071 h 3.397857 a 1.7047162,1.1285828 0 0 1 -1.625197,-1.46902 l 3.335767,-6.98299 a 3.1764972,2.1029542 0 0 1 3.028423,-1.46902 H 77.2031 a 3.1764053,2.1028934 0 0 1 3.028423,1.46902 l 3.33525,6.98299 a 1.7047655,1.1286155 0 0 1 -1.625196,1.46902 h 3.397856 a 1.9407624,1.3988691 0 0 0 1.850272,-1.82071 l -3.796783,-8.65527 a 3.6161267,2.6064437 0 0 0 -3.448046,-1.8207 z" />
      <path
         id="path89"
         style="fill:#cccccc;fill-opacity:0.69223;stroke:none;stroke-width:0.448301;stroke-linejoin:round;stroke-miterlimit:5;stroke-dasharray:none;stroke-opacity:1"
         d="m 34.846567,107.66989 a 3.6162313,2.6065191 0 0 0 -3.448046,1.8207 l -2.514113,5.72991 h 0.198169 l 2.907866,-5.47183 a 3.5338909,2.1029542 0 0 1 3.369399,-1.46902 h 44.07176 a 3.5337886,2.1028934 0 0 1 3.369399,1.46902 l 2.907348,5.47183 h 0.19817 l -2.513597,-5.72991 a 3.6161267,2.6064437 0 0 0 -3.448046,-1.8207 z" />
      <path
         id="path90"
         style="fill:#76561a;fill-opacity:1;stroke:none;stroke-width:0.5;stroke-linejoin:round;stroke-miterlimit:5;stroke-dasharray:none;stroke-opacity:1"
         d="m 27.582548,132.12044 5.695272,19.49878 a 3.5291893,3.5291893 36.858896 0 0 3.387642,2.53972 l 41.460002,0 a 3.5291893,3.5291893 143.1411 0 0 3.387642,-2.53972 l 5.695272,-19.49878 a 1.9835813,1.9835813 53.141104 0 0 -1.904024,-2.53972 l -55.817782,0 a 1.9835813,1.9835813 126.8589 0 0 -1.904024,2.53972 z"
         transform="matrix(0.89817315,0,0,0.86703158,5.844399,17.230144)" />
      <path
         id="path91"
         style="fill:#5b4214;fill-opacity:1;stroke:none;stroke-width:0.499999;stroke-linejoin:round;stroke-miterlimit:5;stroke-dasharray:none;stroke-opacity:1"
         d="m 83.223344,138.12904 -18.991089,0.5488 18.864482,0.29507 z m -51.613387,0.1266 0.206706,1.97714 20.092313,-1.04851 z m 50.896118,2.74299 -13.271025,0.40876 13.05295,1.11466 z m -13.462744,0.0424 -10.930599,0.0842 -6.541203,0.37982 6.499345,0.50643 z m -35.931657,1.41335 -0.02481,2.00505 25.574667,-1.13947 z m 36.564693,0.99219 -7.63881,0.37982 7.63881,0.0842 c 0,0 4.531891,-0.24159 5.799129,-0.29043 -1.268192,-0.0119 -5.799129,-0.17363 -5.799129,-0.17363 z m 11.661304,1.27176 -15.163932,1.55598 14.380517,0.58859 z m -47.027104,1.59783 0.221175,1.78387 10.709424,-0.98185 z m 19.708875,1.89911 -9.960116,0.75965 9.917741,0.21135 c 0,0 9.157754,-0.5488 9.326563,-0.5488 0.168812,0 -9.284188,-0.4222 -9.284188,-0.4222 z m 25.658899,0.88625 c -0.295418,0.0422 -7.764901,0.37983 -7.764901,0.37983 l 7.638293,0.33796 z" />
      <path
         style="fill:#473310;fill-opacity:0.659044;stroke:none;stroke-width:0.432279;stroke-linejoin:round;stroke-miterlimit:5;stroke-dasharray:none;stroke-opacity:1"
         id="path92"
         width="50.8503"
         height="0.31227776"
         x="31.99033"
         y="139.06244"
         d="m 31.99033,139.06244 h 50.8503 v 0.31228 h -50.8503 z m 1.017006,2.43519 h 48.816288 v 0.29979 H 33.007336 Z m 1.017006,2.43519 h 46.782276 v 0.28729 H 34.024342 Z"
         transform="matrix(0.99834012,0,0,1.9319064,-0.15791291,-130.35282)" />
      <path
         id="path93"
         style="fill:#777063;fill-opacity:1;stroke:#000000;stroke-width:0.5;stroke-linejoin:round;stroke-miterlimit:5;stroke-dasharray:none;stroke-opacity:1"
         d="m 29.486572,129.58072 a 1.9835813,1.9835813 0 0 0 -1.904276,2.5399 l 5.695776,19.49855 a 3.5291893,3.5291893 0 0 0 3.38739,2.5399 h 41.460002 a 3.5291893,3.5291893 0 0 0 3.38739,-2.5399 l 5.695776,-19.49855 a 1.9835813,1.9835813 0 0 0 -1.904276,-2.5399 h -2.841687 a 1.7815995,1.7198276 0 0 1 1.709973,2.20193 l -5.11545,16.90595 a 3.169823,3.0599185 0 0 1 -3.042708,2.20245 H 38.776444 a 3.169823,3.0599185 0 0 1 -3.042708,-2.20245 l -5.11545,-16.90595 a 1.7815995,1.7198276 0 0 1 1.709973,-2.20193 z" />
      <path
         id="path94"
         style="fill:#000000;fill-opacity:0.522884;stroke:none;stroke-width:0.5;stroke-linejoin:round;stroke-miterlimit:5;stroke-dasharray:none;stroke-opacity:1"
         d="m 27.802954,130.51555 a 1.9835813,1.9835813 0 0 0 -0.220658,1.60507 l 1.22008,4.17649 H 85.98855 l 1.22008,-4.17649 a 1.9835813,1.9835813 0 0 0 -0.220658,-1.60507 z" />
      <path
         id="rect137"
         style="fill:#1f1e1b;fill-opacity:1;stroke:none;stroke-width:0.595112;stroke-linecap:round;stroke-linejoin:round;stroke-miterlimit:5;stroke-dasharray:none;stroke-opacity:1"
         d="m 33.378295,126.67677 v 4.08399 H 81.7371 v -4.08399 z" />
      <rect
         style="fill:#938c7f;fill-opacity:1;stroke:none;stroke-width:0.5;stroke-linejoin:round;stroke-miterlimit:5;stroke-dasharray:none;stroke-opacity:1"
         id="rect94"
         width="62.541851"
         height="5.7813497"
         x="26.124537"
         y="129.58072"
         ry="0.71620142" />
      <path
         id="path95"
         style="fill:none;fill-opacity:1;stroke:#000000;stroke-width:0.425028;stroke-linejoin:round;stroke-miterlimit:5;stroke-dasharray:none;stroke-opacity:1"
         d="m 34.846567,107.66989 a 3.6162313,2.6065191 0 0 0 -3.448046,1.8207 l -3.7973,8.65527 a 1.9407062,1.3988286 0 0 0 1.850272,1.82071 h 3.397857 a 1.7047162,1.1285828 0 0 1 -1.625197,-1.46902 l 3.335767,-6.98299 a 3.1764972,2.1029542 0 0 1 3.028423,-1.46902 H 77.2031 a 3.1764053,2.1028934 0 0 1 3.028423,1.46902 l 3.33525,6.98299 a 1.7047655,1.1286155 0 0 1 -1.625196,1.46902 h 3.397856 a 1.9407624,1.3988691 0 0 0 1.850272,-1.82071 l -3.796783,-8.65527 a 3.6161267,2.6064437 0 0 0 -3.448046,-1.8207 z" />
      <rect
         style="fill:#938c7f;fill-opacity:1;stroke:none;stroke-width:0.5;stroke-linejoin:round;stroke-miterlimit:5;stroke-dasharray:none;stroke-opacity:1"
         id="rect95"
         width="62.541851"
         height="5.7813497"
         x="26.124537"
         y="114.14776"
         ry="0.71620142" />
      <path
         id="rect129"
         style="fill:#6c675c;fill-opacity:1;stroke:#000000;stroke-width:0.5;stroke-linecap:round;stroke-linejoin:round;stroke-miterlimit:5;stroke-dasharray:none;stroke-opacity:1"
         d="m 31.761856,124.75699 -2.877344,5.29115 h 2.547132 l 1.946651,-3.37137 H 57.566483 81.7371 l 1.946651,3.37137 h 2.547132 l -2.877344,-5.29115 H 57.566483 31.779426 v 0.0207 z" />
      <path
         id="path96"
         style="fill:#ada79e;fill-opacity:1;stroke:none;stroke-width:0.415032;stroke-linejoin:round;stroke-miterlimit:5;stroke-dasharray:none;stroke-opacity:1"
         d="m 26.840739,129.58072 c -0.396776,0 -0.716235,0.22011 -0.716235,0.49349 v 0.4415 h 62.541919 v -0.4415 c 0,-0.27338 -0.31946,-0.49349 -0.716236,-0.49349 z" />
      <path
         id="path97"
         style="fill:#39362f;fill-opacity:1;stroke:none;stroke-width:0.415034;stroke-linejoin:round;stroke-miterlimit:5;stroke-dasharray:none;stroke-opacity:1"
         d="m 26.840739,135.34362 c -0.396776,0 -0.716235,-0.22011 -0.716235,-0.4935 v -0.4415 h 62.541919 v 0.4415 c 0,0.27339 -0.31946,0.4935 -0.716236,0.4935 z" />
      <rect
         style="fill:none;fill-opacity:1;stroke:#000000;stroke-width:0.5;stroke-linejoin:round;stroke-miterlimit:5;stroke-dasharray:none;stroke-opacity:1"
         id="rect97"
         width="62.541851"
         height="5.7813497"
         x="26.124537"
         y="129.58072"
         ry="0.71620142" />
      <path
         id="path98"
         style="fill:#ada79e;fill-opacity:1;stroke:none;stroke-width:0.415032;stroke-linejoin:round;stroke-miterlimit:5;stroke-dasharray:none;stroke-opacity:1"
         d="m 26.840739,114.14755 c -0.396776,0 -0.716235,0.22011 -0.716235,0.49349 v 0.4415 h 62.541919 v -0.4415 c 0,-0.27338 -0.31946,-0.49349 -0.716236,-0.49349 z" />
      <rect
         style="fill:#000000;fill-opacity:0.471544;stroke:none;stroke-width:0.423954;stroke-linejoin:round;stroke-miterlimit:5;stroke-dasharray:none;stroke-opacity:1"
         id="rect98"
         width="11.298077"
         height="2.9006667"
         x="51.746426"
         y="112.18188"
         ry="0.54695499" />
      <path
         id="path99"
         style="fill:#39362f;fill-opacity:1;stroke:none;stroke-width:0.415034;stroke-linejoin:round;stroke-miterlimit:5;stroke-dasharray:none;stroke-opacity:1"
         d="m 26.840742,119.92911 c -0.396776,0 -0.716235,-0.22011 -0.716235,-0.4935 v -0.4415 h 62.541919 v 0.4415 c 0,0.27339 -0.31946,0.4935 -0.716236,0.4935 z" />
      <rect
         style="fill:none;fill-opacity:1;stroke:#000000;stroke-width:0.5;stroke-linejoin:round;stroke-miterlimit:5;stroke-dasharray:none;stroke-opacity:1"
         id="rect99"
         width="62.541851"
         height="5.7813497"
         x="26.124537"
         y="114.14776"
         ry="0.71620142" />
      <rect
         style="fill:#938c7f;fill-opacity:1;stroke:none;stroke-width:0.414466;stroke-linejoin:round;stroke-miterlimit:5;stroke-dasharray:none;stroke-opacity:1"
         id="rect100"
         width="10.798023"
         height="2.9006667"
         x="51.996479"
         y="111.18378"
         ry="0.54695499" />
      <path
         id="path100"
         style="fill:#ada79e;fill-opacity:1;stroke:none;stroke-width:0.153257;stroke-linejoin:round;stroke-miterlimit:5;stroke-dasharray:none;stroke-opacity:1"
         d="m 52.167243,111.20249 c -0.06789,0 -0.122561,0.1754 -0.122561,0.39326 v 0.35182 h 10.701602 v -0.35182 c 0,-0.21786 -0.05467,-0.39326 -0.12256,-0.39326 z" />
      <rect
         style="fill:none;fill-opacity:1;stroke:#000000;stroke-width:0.5;stroke-linejoin:round;stroke-miterlimit:5;stroke-dasharray:none;stroke-opacity:1"
         id="rect101"
         width="10.798023"
         height="2.9006667"
         x="51.996479"
         y="111.18378"
         ry="0.54695499" />
      <rect
         style="fill:#938c7f;fill-opacity:1;stroke:#000000;stroke-width:0.4;stroke-linecap:round;stroke-linejoin:round;stroke-miterlimit:5;stroke-dasharray:none;stroke-opacity:1"
         id="rect134"
         width="3.1244323"
         height="1.099432"
         x="32.028107"
         y="124.22002" />
      <rect
         style="fill:#938c7f;fill-opacity:1;stroke:#000000;stroke-width:0.4;stroke-linecap:round;stroke-linejoin:round;stroke-miterlimit:5;stroke-dasharray:none;stroke-opacity:1"
         id="rect136"
         width="3.1244323"
         height="1.099432"
         x="80.029068"
         y="124.22002" />
    </g>
    <g
       id="g109"
       style="display:inline"
       transform="translate(-9.2269077,12.165035)">
      <rect
         style="fill:#ada79e;fill-opacity:1;stroke:none;stroke-width:0.594375;stroke-linejoin:round;stroke-miterlimit:5;stroke-dasharray:none;stroke-opacity:1"
         id="rect106"
         width="4.6827941"
         height="4.1988392"
         x="57.225098"
         y="122.16446" />
      <path
         id="path106"
         style="fill:#ccc9c4;fill-opacity:1;stroke:none;stroke-width:0.707113;stroke-linejoin:round;stroke-miterlimit:5;stroke-dasharray:none;stroke-opacity:1"
         d="m 57.225146,122.16464 v 0.8155 h 4.682401 v -0.8155 z" />
      <rect
         style="fill:none;fill-opacity:1;stroke:#000000;stroke-width:0.5;stroke-linejoin:round;stroke-miterlimit:5;stroke-dasharray:none;stroke-opacity:1"
         id="rect107"
         width="4.6827941"
         height="4.1988392"
         x="57.225098"
         y="122.16446" />
      <circle
         style="fill:#ada79e;fill-opacity:1;stroke:none;stroke-width:0.499999;stroke-linejoin:round;stroke-miterlimit:5;stroke-dasharray:none;stroke-opacity:1"
         id="circle107"
         cx="59.566502"
         cy="129.03796"
         r="4.5778975" />
      <path
         id="path107"
         style="fill:#ccc9c4;fill-opacity:1;stroke:none;stroke-width:0.499999;stroke-linejoin:round;stroke-miterlimit:5;stroke-dasharray:none;stroke-opacity:1"
         d="m 59.56639,124.4601 a 4.5778975,4.5778975 0 0 0 -4.578015,4.57802 4.5778975,4.5778975 0 0 0 0.03049,0.46715 4.5778975,4.5778975 0 0 1 4.547526,-4.11034 4.5778975,4.5778975 0 0 1 4.547526,4.11034 4.5778975,4.5778975 0 0 0 0.03049,-0.46715 4.5778975,4.5778975 0 0 0 -4.578015,-4.57802 z" />
      <path
         id="path108"
         style="fill:#39362f;fill-opacity:1;stroke:none;stroke-width:0.50581;stroke-linejoin:round;stroke-miterlimit:5;stroke-dasharray:none;stroke-opacity:1"
         d="m 64.13562,128.90479 a 4.5778975,4.5778975 0 0 1 0.0088,0.13333 4.5778975,4.5778975 0 0 1 -4.578015,4.5775 4.5778975,4.5778975 0 0 1 -4.578015,-4.5775 4.5778975,4.5778975 0 0 1 0.0088,-0.13229 4.6849356,4.5778975 0 0 0 -0.115755,0.96841 4.6849356,4.5778975 0 0 0 4.684985,4.57802 4.6849356,4.5778975 0 0 0 4.684985,-4.57802 4.6849356,4.5778975 0 0 0 -0.115755,-0.96945 z" />
      <circle
         style="fill:none;fill-opacity:1;stroke:#000000;stroke-width:0.499999;stroke-linejoin:round;stroke-miterlimit:5;stroke-dasharray:none;stroke-opacity:1"
         id="circle108"
         cx="59.566502"
         cy="129.03796"
         r="4.5778975" />
      <path
         id="path109"
         style="fill:#f0da15;fill-opacity:1;stroke:#000000;stroke-width:0.5;stroke-linejoin:round;stroke-miterlimit:5;stroke-dasharray:none;stroke-opacity:1"
         d="m 59.566244,126.6133 a 1.4065028,1.4065028 0 0 0 -1.406633,1.40663 1.4065028,1.4065028 0 0 0 0.874366,1.30225 l -0.874366,2.14044 1.406633,-0.0243 1.407149,0.0243 -0.874882,-2.14044 a 1.4065028,1.4065028 0 0 0 0.874365,-1.30225 1.4065028,1.4065028 0 0 0 -1.406632,-1.40663 z" />
    </g>
  </g>
</svg>
